# xmcd CD database file
#
# Track frame offsets:
#	150
#	24520
#	51572
#	80360
#	113135
#	140442
#	161272
#	191892
#	210632
#	238980
#	262680
#
# Disc length: 3789 seconds
#
# Revision: 1
# Processed by: cddbd v1.5.2PL0 Copyright (c) Steve Scherf et al.
# Submitted via: CDex 1.51
#
DISCID=950ecb0b
DTITLE=Asia - Silent Nation
DYEAR=2004
DGENRE=Progressive Rock
TTITLE0=What About Love
TTITLE1=Long Way From Home
TTITLE2=Midnight
TTITLE3=Bule Moon Monday
TTITLE4=Silent Nation
TTITLE5=Ghost In The Mirror
TTITLE6=Gone Too Far
TTITLE7=I Will Be There For You
TTITLE8=Darkness Day
TTITLE9=The Prophet
TTITLE10=Rise
EXTD=YEAR: 2004
EXTT0=
EXTT1=
EXTT2=
EXTT3=
EXTT4=
EXTT5=
EXTT6=
EXTT7=
EXTT8=
EXTT9=
EXTT10=
PLAYORDER=
